<?xml version="1.0" standalone="no"?>
<!DOCTYPE svg PUBLIC "-//W3C//DTD SVG 20010904//EN"
 "http://www.w3.org/TR/2001/REC-SVG-20010904/DTD/svg10.dtd">
<svg version="1.0" xmlns="http://www.w3.org/2000/svg"
 width="1007.000000pt" height="1639.000000pt" viewBox="0 0 1007.000000 1639.000000"
 preserveAspectRatio="xMidYMid meet">

 <g xmlns="http://www.w3.org/2000/svg" transform="translate(0.000000,1639.000000) scale(0.100000,-0.100000)" fill="#00265D" stroke="none">
    <path d="M3930 16380 c-342 -43 -530 -239 -530 -555 0 -160 48 -284 150 -385 74 -75 157 -120 276 -150 129 -33 386 -26 582 16 l32 7 0 303 0 304 -225 0 -226 0 3 -102 3 -103 83 -3 82 -3 0 -105 c0 -123 4 -119 -115 -118 -144 1 -255 65 -312 183 -25 50 -28 66 -28 156 1 116 21 171 88 238 105 105 345 139 522 74 38 -15 71 -24 73 -22 10 10 24 217 15 226 -32 32 -329 56 -473 39z"/>
    <path d="M240 15824 l0 -546 293 5 c315 5 350 10 448 63 61 34 103 87 124 157 45 153 -17 280 -157 322 l-40 11 58 35 c75 44 114 103 121 187 15 160 -73 270 -242 301 -33 6 -178 11 -332 11 l-273 0 0 -546z m494 322 c70 -29 88 -105 38 -156 -35 -35 -87 -50 -174 -50 l-68 0 0 110 0 110 85 0 c51 0 99 -6 119 -14z m16 -419 c41 -14 80 -68 80 -109 0 -46 -27 -88 -68 -105 -21 -9 -79 -18 -134 -21 l-98 -5 0 127 0 126 93 -1 c50 0 108 -5 127 -12z"/>
    <path d="M1272 15968 c3 -377 4 -406 23 -450 47 -109 120 -179 233 -221 50 -19 78 -22 217 -22 142 0 166 3 216 23 85 34 143 77 183 135 69 99 70 108 74 545 l3 392 -145 0 -146 0 0 -340 c0 -204 -4 -359 -11 -389 -20 -97 -77 -152 -161 -158 -77 -6 -135 26 -168 92 l-25 50 -3 373 -3 372 -145 0 -145 0 3 -402z"/>
    <path d="M2400 15825 l0 -546 143 3 142 3 3 213 2 212 58 0 c109 0 140 -41 217 -282 l47 -148 149 0 c92 0 149 4 149 10 0 22 -152 426 -175 466 -14 23 -34 46 -45 49 -30 10 -24 18 25 39 58 23 119 93 134 151 16 63 14 159 -5 203 -32 77 -117 138 -222 161 -32 7 -165 11 -337 11 l-285 0 0 -545z m481 325 c57 -16 89 -52 89 -100 0 -52 -21 -92 -57 -110 -15 -7 -72 -15 -125 -18 l-98 -4 0 121 0 121 78 0 c42 0 93 -5 113 -10z"/>
    <path d="M4640 15825 l0 -545 140 0 140 0 1 413 1 412 62 -190 c34 -104 93 -290 131 -413 l70 -222 134 2 135 3 138 415 138 415 0 -417 0 -418 140 0 140 0 0 545 0 545 -221 -2 -220 -3 -114 -344 c-63 -189 -118 -348 -122 -352 -5 -5 -37 80 -72 189 -34 108 -85 268 -113 355 l-51 157 -228 0 -229 0 0 -545z"/>
    <path d="M6327 15847 c-109 -287 -200 -532 -203 -544 l-6 -23 145 0 144 0 45 118 44 117 201 3 201 2 30 -82 c16 -46 35 -100 41 -120 l13 -38 159 0 c87 0 159 1 159 3 0 1 -94 245 -208 542 l-208 540 -180 2 -179 3 -198 -523z m443 79 c33 -109 60 -200 60 -202 0 -2 -60 -4 -134 -4 l-134 0 69 208 c38 114 69 209 70 212 1 8 6 -7 69 -214z"/>
    <path d="M7420 15825 l0 -545 131 0 131 0 -4 365 c-2 201 -1 365 2 365 3 0 85 -159 184 -353 98 -193 183 -358 189 -364 7 -10 56 -13 183 -13 l174 0 0 545 0 545 -130 0 -130 0 -1 -362 0 -363 -182 363 -182 362 -182 0 -183 0 0 -545z"/>
    <path d="M8630 15825 l0 -545 132 0 131 0 -6 372 -6 373 22 -40 c13 -22 99 -190 192 -372 l170 -333 178 0 177 0 0 545 0 545 -130 0 -130 0 -1 -362 0 -363 -182 363 -182 362 -182 0 -183 0 0 -545z"/>
    <path d="M2015 14786 c-121 -31 -195 -88 -241 -189 -26 -57 -29 -72 -29 -177 0 -103 3 -121 26 -170 34 -72 79 -116 159 -154 62 -30 71 -31 195 -31 77 0 152 6 183 13 l52 14 0 194 0 194 -145 0 -145 0 0 -55 0 -54 78 -3 77 -3 3 -92 3 -92 -37 -7 c-96 -18 -204 19 -253 86 -102 141 -46 356 108 408 47 17 168 15 226 -3 27 -8 51 -12 54 -10 2 3 6 29 9 59 5 61 9 57 -92 75 -77 14 -168 13 -231 -3z"/>
    <path d="M3552 14785 c-112 -25 -201 -96 -245 -194 -26 -57 -35 -209 -18 -287 23 -101 94 -177 206 -220 39 -15 76 -19 165 -19 63 0 127 3 143 8 26 7 27 10 27 68 0 54 -2 60 -17 54 -45 -17 -121 -27 -169 -22 -134 14 -213 107 -214 252 0 113 53 202 142 239 48 20 158 21 205 1 20 -8 38 -13 40 -11 2 2 7 28 10 59 l6 54 -34 12 c-55 19 -177 22 -247 6z"/>
    <path d="M5847 14789 c-21 -5 -50 -15 -65 -23 -92 -48 -130 -177 -79 -276 25 -51 58 -76 154 -115 97 -41 133 -69 133 -106 0 -45 -15 -65 -60 -83 -53 -21 -88 -20 -161 4 -34 12 -62 20 -64 18 -1 -2 -5 -31 -9 -65 l-7 -61 69 -12 c100 -18 216 -9 276 21 69 34 99 83 104 169 7 116 -34 166 -184 226 -125 51 -156 104 -95 165 27 26 36 29 93 29 35 -1 80 -7 100 -14 l36 -13 7 59 c4 33 5 61 3 63 -7 7 -133 25 -173 24 -22 -1 -57 -5 -78 -10z"/>
    <path d="M6512 14785 c-114 -25 -190 -86 -241 -195 -23 -49 -26 -67 -26 -170 0 -103 3 -121 26 -170 35 -73 80 -117 158 -153 55 -26 79 -31 165 -34 56 -2 121 0 146 4 l45 8 3 64 c3 58 1 63 -15 56 -41 -16 -141 -28 -185 -21 -27 4 -68 21 -95 39 -151 102 -131 374 32 448 49 23 156 25 214 4 40 -14 41 -13 47 9 3 13 4 40 2 62 -3 38 -4 39 -53 51 -67 15 -146 14 -223 -2z"/>
    <path d="M7862 14789 c-56 -11 -137 -56 -169 -94 -53 -62 -77 -132 -81 -239 -11 -264 121 -406 367 -394 138 7 229 61 284 171 52 101 57 263 13 367 -63 151 -228 226 -414 189z m171 -120 c44 -23 87 -74 104 -123 25 -73 23 -187 -6 -251 -28 -63 -46 -83 -96 -106 -82 -38 -183 -12 -228 58 -40 61 -50 107 -45 202 6 117 46 191 118 220 34 13 127 13 153 0z"/>
    <path d="M8664 14790 c-143 -30 -230 -129 -254 -287 -21 -135 12 -262 89 -346 66 -71 124 -92 256 -92 102 0 114 2 168 29 69 35 110 79 146 156 24 50 26 66 26 180 0 114 -2 130 -27 182 -34 74 -95 132 -166 158 -64 24 -176 34 -238 20z m163 -121 c75 -28 115 -101 121 -220 5 -95 -5 -141 -45 -202 -45 -70 -146 -96 -228 -58 -50 23 -68 43 -96 106 -29 64 -31 178 -6 251 17 48 59 98 102 122 26 15 115 15 152 1z"/>
    <path d="M496 14782 c-3 -6 -137 -347 -273 -699 -4 -10 14 -13 70 -13 l75 0 30 78 29 77 148 0 147 0 28 -75 27 -75 83 -3 c64 -2 81 0 77 10 -3 7 -39 101 -82 208 -42 107 -103 264 -136 348 l-61 152 -78 0 c-43 0 -81 -4 -84 -8z m138 -306 l44 -126 -99 0 c-67 0 -99 4 -99 11 0 6 21 70 47 141 32 90 49 125 54 115 5 -8 28 -71 53 -141z"/>
    <path d="M1030 14430 l0 -360 65 0 65 0 0 263 c1 221 3 259 14 244 7 -9 69 -127 137 -262 l124 -245 88 0 87 0 0 360 0 360 -65 0 -65 0 -2 -267 -3 -268 -136 265 -137 265 -86 3 -86 3 0 -361z"/>
    <path d="M2510 14430 l0 -360 210 0 210 0 0 55 0 55 -135 0 -135 0 0 305 0 305 -75 0 -75 0 0 -360z"/>
    <path d="M3010 14430 l0 -360 75 0 75 0 0 360 0 360 -75 0 -75 0 0 -360z"/>
    <path d="M4003 14430 l-141 -360 77 0 76 0 30 80 29 80 146 0 146 0 29 -80 29 -80 78 0 c43 0 78 4 78 8 0 8 -204 533 -253 652 l-23 55 -80 3 -80 3 -141 -361z m266 73 c25 -71 46 -134 49 -140 3 -10 -21 -13 -98 -13 -78 0 -101 3 -98 13 3 6 25 69 49 139 24 71 46 128 49 128 3 0 25 -57 49 -127z"/>
    <path d="M4670 14430 l0 -360 70 0 70 0 0 263 0 262 31 -55 c17 -30 78 -148 135 -262 l105 -208 89 0 90 0 0 360 0 360 -70 0 -70 0 -2 -264 -3 -264 -134 264 -135 264 -88 0 -88 0 0 -360z"/>
    <path d="M6900 14430 l0 -360 70 0 70 0 0 155 0 155 145 0 145 0 0 -155 0 -155 70 0 70 0 0 360 0 360 -70 0 -70 0 0 -145 0 -145 -145 0 -145 0 0 145 0 145 -70 0 -70 0 0 -360z"/>
    <path d="M9240 14430 l0 -360 210 0 210 0 0 55 0 55 -140 0 -140 0 0 305 0 305 -70 0 -70 0 0 -360z"/>
    <path d="M4127 13003 c-4 -3 -7 -820 -7 -1815 l0 -1808 -2058 0 -2057 0 -3 -60 -3 -60 2120 0 2121 0 0 1875 0 1875 -53 0 c-30 0 -57 -3 -60 -7z" fill="#006A40"/>
    <path d="M5660 11135 l0 -1875 2206 0 2205 0 -3 60 -3 60 -2142 0 -2143 0 0 1815 0 1815 -60 0 -60 0 0 -1875z" fill="#006A40"/>
    <path d="M320 11175 l0 -1575 1330 0 1330 0 2 773 3 772 22 41 c31 58 79 103 138 130 31 14 42 23 30 24 -33 1 -108 39 -143 73 -119 113 -114 315 10 421 109 93 277 88 381 -12 65 -62 82 -104 82 -202 0 -76 -3 -91 -29 -138 -34 -61 -87 -107 -151 -131 l-45 -17 44 -12 c61 -16 125 -68 155 -127 l26 -49 3 -773 2 -773 195 0 195 0 -2 1573 -3 1572 -1787 3 -1788 2 0 -1575z m2378 1125 c99 -43 172 -154 172 -261 0 -111 -85 -220 -203 -260 l-52 -18 30 -11 c79 -28 127 -72 161 -145 l24 -50 0 -787 0 -788 -265 0 -266 0 3 798 c3 795 3 797 25 837 30 56 79 100 143 129 43 19 49 25 30 26 -14 0 -44 9 -66 19 -210 95 -227 372 -32 496 79 50 201 56 296 15z m-1784 -11 c85 -24 156 -125 156 -223 0 -90 -79 -193 -162 -211 -30 -7 -30 -7 21 -25 59 -20 122 -74 154 -135 22 -40 22 -41 25 -832 l3 -793 -266 0 -265 0 0 788 c0 770 1 788 21 832 11 25 32 58 47 73 30 32 111 77 139 77 10 0 -2 10 -27 21 -94 42 -140 112 -140 210 0 160 137 262 294 218z m932 -32 c64 -33 137 -113 158 -174 20 -60 20 -166 0 -226 -28 -83 -155 -197 -219 -197 -33 0 -4 -18 39 -24 108 -16 229 -109 254 -194 9 -29 12 -247 12 -806 l0 -766 -375 0 -375 0 0 788 0 788 30 47 c16 25 48 60 71 76 46 34 137 71 174 71 39 0 29 15 -17 27 -119 32 -218 170 -218 303 0 93 53 201 126 257 90 68 239 82 340 30z"/>
    <path d="M6010 11120 l0 -1530 1830 0 1830 0 2 1530 3 1530 -1832 0 -1833 0 0 -1530z m1892 1128 l35 -103 111 -3 c62 -1 112 -7 112 -11 0 -5 -38 -38 -85 -72 -47 -35 -85 -66 -85 -69 0 -4 13 -51 30 -106 16 -54 30 -103 30 -107 0 -4 -43 22 -94 58 l-95 66 -95 -66 c-53 -37 -96 -65 -96 -62 0 2 13 48 30 103 16 54 30 104 30 110 0 6 -39 39 -86 74 -47 34 -81 67 -77 71 5 5 55 10 113 11 l105 3 35 102 c19 57 38 103 42 103 3 0 22 -46 40 -102z m673 -734 c3 -12 209 -29 225 -19 6 4 10 3 10 -2 0 -4 -34 -33 -76 -63 -112 -82 -107 -69 -73 -184 16 -54 29 -103 29 -108 0 -5 -42 20 -94 56 l-93 65 -93 -65 c-51 -36 -94 -64 -96 -62 -2 2 12 52 31 111 l33 107 -89 67 c-49 37 -87 69 -84 71 3 3 26 6 52 6 27 1 75 3 108 4 l60 2 39 111 39 112 34 -99 c19 -54 36 -104 38 -110z m-1336 95 c18 -55 38 -102 44 -104 7 -2 59 -7 116 -12 l104 -8 -86 -65 c-48 -36 -87 -69 -87 -75 0 -5 14 -55 30 -110 16 -54 28 -101 26 -102 -1 -2 -44 26 -95 61 l-93 64 -91 -64 c-50 -35 -92 -62 -95 -60 -2 3 11 52 29 110 18 58 30 108 28 109 -2 2 -41 31 -86 65 -95 72 -102 80 -65 75 15 -2 67 0 116 4 l89 8 35 103 c20 56 39 102 42 102 3 0 21 -45 39 -101z m1046 -866 c22 -58 29 -64 80 -62 22 0 44 0 49 0 5 -1 -12 -17 -38 -36 -25 -20 -46 -37 -46 -39 0 -2 7 -23 15 -46 22 -62 20 -64 -29 -30 -25 16 -47 30 -50 30 -4 0 -25 -14 -48 -30 -23 -17 -43 -29 -44 -27 -2 1 4 27 12 56 9 29 14 54 12 55 -1 1 -20 15 -41 31 -21 15 -35 30 -32 33 3 3 26 6 52 6 l48 1 19 53 c10 28 20 52 21 52 1 0 10 -21 20 -47z m-379 -403 l32 -95 116 -5 116 -5 -90 -69 c-49 -38 -90 -72 -90 -75 0 -4 14 -51 31 -105 17 -54 28 -100 25 -103 -2 -3 -44 22 -92 56 -48 34 -90 61 -94 61 -3 0 -48 -29 -98 -65 -51 -35 -92 -61 -92 -57 0 4 14 50 30 102 16 52 30 101 30 107 0 7 -41 43 -90 80 l-91 68 117 5 116 5 34 95 c47 132 45 128 52 110 3 -8 20 -58 38 -110z"/>
    <path d="M7550 7870 l-1895 -5 -3 -3325 c-1 -1829 0 -3334 3 -3346 4 -17 13 -21 60 -23 l55 -2 0 3290 0 3291 2130 0 2130 0 0 65 0 65 -292 -2 c-161 -2 -1146 -5 -2188 -8z" fill="#006A40"/>
    <path d="M10 7800 l0 -60 2065 0 2065 0 0 -2797 c0 -1539 3 -3011 7 -3270 l6 -473 60 0 60 0 -6 1622 c-4 892 -7 2390 -7 3330 l0 1708 -2125 0 -2125 0 0 -60z" fill="#006A40"/>
    <path d="M410 7093 c0 -466 5 -543 56 -868 172 -1096 581 -2045 1227 -2850 353 -439 810 -858 1307 -1198 136 -92 421 -269 427 -263 3 3 -79 213 -432 1101 -81 204 -175 442 -210 530 -88 224 -832 2101 -852 2150 l-16 40 -126 1 c-390 2 -827 188 -969 412 -67 105 -81 270 -33 394 29 74 97 150 167 184 63 31 173 43 224 26 17 -7 30 -8 28 -4 -2 4 -20 42 -41 84 -115 233 -77 469 104 650 l48 48 -454 0 -455 0 0 -437z"/>
    <path d="M1872 7501 c69 -61 127 -195 129 -296 l0 -40 17 25 c63 92 179 184 275 216 71 24 178 22 240 -5 86 -37 162 -135 187 -243 63 -274 -165 -847 -456 -1147 -76 -78 -83 -88 -75 -111 21 -57 923 -2156 929 -2162 5 -5 82 37 171 93 90 55 167 97 171 92 10 -11 152 -364 148 -367 -2 -1 -74 -49 -160 -106 -87 -57 -158 -109 -158 -115 0 -14 99 -247 110 -258 4 -5 61 30 125 78 64 47 123 89 129 91 8 3 44 -75 104 -227 50 -128 89 -235 87 -239 -2 -4 -57 -42 -122 -85 -65 -44 -120 -80 -122 -82 -4 -3 279 -673 300 -713 5 -8 9 1255 9 2808 l0 2822 -1035 0 -1036 0 33 -29z"/>
    <path d="M6000 4828 c0 -1480 2 -2689 4 -2687 2 2 94 182 206 399 111 217 244 476 295 575 51 99 186 362 300 585 114 223 251 491 305 595 154 299 444 864 598 1165 77 151 174 340 215 418 l74 144 114 3 c267 7 606 154 804 349 170 168 251 346 243 531 -5 124 -49 218 -145 314 -103 103 -215 136 -378 111 -251 -38 -520 -182 -785 -419 -219 -197 -325 -261 -431 -261 -89 0 -161 56 -209 161 -29 65 -27 168 4 236 46 99 144 180 236 196 54 10 64 -2 57 -66 -7 -70 -28 -111 -87 -168 -52 -50 -63 -82 -45 -127 14 -33 32 -42 80 -42 45 0 107 43 360 251 365 299 421 336 605 399 l85 29 -1252 0 -1253 1 0 -2692z"/>
    <path d="M9088 7488 c80 -40 179 -130 235 -216 77 -116 106 -199 114 -332 7 -117 -18 -232 -76 -354 -174 -367 -641 -706 -1093 -794 -75 -15 -89 -21 -99 -42 -6 -14 -131 -290 -276 -615 -146 -324 -454 -1011 -685 -1525 -231 -514 -460 -1025 -510 -1135 -123 -274 -197 -440 -256 -570 -27 -60 -48 -112 -46 -114 5 -6 244 139 384 233 1183 797 2154 2086 2599 3449 97 298 155 542 200 837 31 209 40 352 47 798 l7 412 -304 0 -304 0 63 -32z"/>
    <path d="M1555 7048 c-79 -69 -9 -356 116 -473 72 -68 116 -59 140 28 29 109 -63 363 -158 433 -47 35 -68 37 -98 12z"/>
    <path d="M2192 6833 c-104 -51 -222 -264 -222 -400 0 -44 5 -58 25 -79 28 -28 46 -26 103 8 121 73 240 357 191 451 -22 41 -45 46 -97 20z"/>
    <path d="M1293 6390 c-96 -22 -102 -94 -15 -172 108 -98 302 -153 397 -114 136 57 -25 232 -257 280 -84 17 -79 17 -125 6z"/>
    <path d="M9477 3758 c-15 -40 -27 -76 -27 -79 0 -3 70 -63 156 -134 85 -70 154 -129 152 -130 -2 -2 -93 3 -202 12 -109 8 -202 11 -206 6 -10 -11 -62 -145 -58 -149 4 -4 478 -194 484 -194 7 0 34 67 34 83 0 8 -72 42 -187 88 -103 41 -179 76 -169 77 10 2 91 -1 180 -7 254 -17 239 -19 259 35 15 40 15 48 3 58 -65 50 -314 262 -311 264 2 2 84 -28 182 -67 98 -39 184 -71 190 -71 10 0 37 60 38 83 0 7 -424 181 -470 193 -17 4 -24 -5 -48 -68z"/>
    <path d="M445 3527 c-125 -42 -192 -110 -210 -214 -12 -76 36 -213 104 -293 l26 -31 125 55 c69 30 126 59 128 64 2 7 -72 180 -82 190 -2 1 -19 -5 -39 -14 l-36 -17 20 -50 c11 -27 18 -51 17 -53 -13 -12 -113 -52 -121 -47 -18 11 -47 89 -47 126 0 54 26 104 73 138 137 99 279 32 318 -151 12 -55 12 -55 58 -39 31 11 32 14 27 48 -20 116 -91 229 -167 268 -56 29 -140 38 -194 20z"/>
    <path d="M9244 3116 c-92 -41 -158 -149 -159 -257 0 -56 4 -73 30 -114 38 -61 121 -119 203 -141 54 -15 70 -15 119 -4 148 33 245 234 176 366 -27 51 -85 103 -148 134 -61 30 -173 38 -221 16z m173 -118 c23 -11 60 -40 83 -64 35 -38 40 -49 40 -91 0 -117 -104 -175 -220 -122 -105 47 -145 101 -138 181 11 111 113 152 235 96z"/>
    <path d="M660 3004 c-277 -156 -253 -139 -236 -172 36 -68 32 -68 131 -12 50 27 93 50 96 50 8 0 29 -48 29 -68 0 -9 -29 -53 -65 -97 -36 -44 -65 -84 -65 -89 0 -10 49 -96 54 -96 9 0 148 184 156 206 9 24 11 24 39 9 68 -35 154 -6 186 61 22 47 10 100 -50 209 -71 131 -41 131 -275 -1z m206 -49 c9 -13 18 -41 21 -62 7 -52 -21 -78 -79 -74 -16 1 -78 74 -78 92 0 7 98 67 112 68 4 1 15 -10 24 -24z"/>
    <path d="M8980 2621 c-48 -16 -85 -40 -126 -83 -44 -45 -134 -167 -134 -179 0 -5 95 -76 212 -160 l211 -151 19 23 c174 225 190 350 62 469 -73 67 -179 102 -244 81z m107 -122 c35 -13 80 -55 100 -93 29 -57 11 -157 -37 -201 -17 -15 -25 -11 -146 75 -173 123 -164 112 -128 157 53 66 136 91 211 62z"/>
    <path d="M893 2533 l-263 -65 31 -44 c34 -49 34 -49 106 -30 l53 14 53 -76 c29 -43 57 -83 61 -90 5 -8 -7 -32 -29 -63 l-37 -51 34 -49 c18 -26 36 -45 39 -41 4 4 75 110 159 236 l152 228 -34 49 c-18 27 -40 48 -48 48 -8 -1 -133 -30 -277 -66z m227 -48 c0 -5 -103 -149 -120 -168 -5 -5 -27 19 -49 52 -30 43 -38 63 -29 66 17 7 181 53 191 54 4 1 7 -1 7 -4z"/>
    <path d="M8613 2238 c-131 -98 -151 -251 -41 -318 49 -30 101 -25 189 16 88 41 124 41 135 -1 14 -55 -24 -112 -97 -147 l-31 -16 34 -36 35 -37 39 31 c83 65 124 134 124 211 0 48 -3 55 -44 95 -39 40 -48 44 -92 44 -36 0 -70 -10 -123 -35 -84 -41 -94 -42 -121 -15 -35 35 -26 69 34 126 l55 51 -28 27 c-15 14 -29 26 -32 26 -3 0 -19 -10 -36 -22z"/>
    <path d="M1310 2211 c-84 -26 -170 -96 -206 -169 -27 -53 -25 -144 5 -204 24 -51 101 -142 133 -159 16 -9 25 -6 49 17 l29 28 -49 43 c-57 50 -81 95 -81 153 0 49 17 84 62 126 109 104 239 80 304 -56 9 -19 18 -37 20 -39 7 -9 64 42 64 58 0 31 -77 127 -127 159 -73 46 -143 61 -203 43z"/>
    <path d="M8340 1935 l-35 -36 188 -186 188 -187 40 40 40 40 -187 179 c-103 99 -190 181 -193 183 -4 1 -22 -14 -41 -33z"/>
    <path d="M1513 1772 l-181 -187 106 -107 c59 -60 112 -108 118 -108 13 0 54 42 54 55 0 6 -33 40 -72 77 l-73 66 52 54 53 53 68 -68 68 -67 29 30 29 30 -67 68 -67 68 45 44 45 44 68 -67 c37 -37 72 -67 78 -67 14 0 57 46 53 57 -5 10 -214 213 -220 213 -2 0 -86 -84 -186 -188z"/>
    <path d="M8244 1826 l-39 -35 92 -182 c51 -101 90 -185 88 -187 -1 -2 -76 53 -165 122 l-162 126 -49 -41 c-27 -22 -52 -45 -55 -50 -3 -5 38 -90 90 -188 53 -99 96 -182 96 -185 0 -4 -72 48 -160 114 -88 67 -166 123 -173 125 -13 5 -96 -60 -87 -68 18 -16 439 -307 445 -307 3 0 29 19 56 42 l49 41 -95 183 c-52 101 -95 186 -95 189 0 3 74 -51 164 -120 91 -69 168 -125 173 -125 4 1 29 20 56 44 l47 42 -116 245 c-64 134 -117 245 -118 247 -2 1 -20 -13 -42 -32z"/>
    <path d="M7200 1078 c-91 -49 -169 -93 -173 -98 -11 -10 19 -70 35 -70 6 0 35 14 65 31 43 25 57 29 68 19 8 -7 15 -16 15 -20 0 -6 178 -340 186 -349 5 -5 83 30 90 40 3 5 -40 93 -96 196 -55 103 -100 190 -100 194 0 4 27 22 60 41 33 18 60 36 60 41 0 14 -30 67 -38 66 -4 0 -81 -41 -172 -91z"/>
    <path d="M2665 1121 c-83 -21 -161 -96 -195 -187 -36 -99 -22 -177 47 -255 41 -45 164 -119 199 -119 8 0 23 18 34 40 19 37 19 40 3 40 -31 1 -107 40 -141 73 -55 54 -63 126 -22 207 66 128 208 146 309 38 l29 -31 21 34 c28 46 27 52 -14 83 -82 63 -198 96 -270 77z"/>
    <path d="M6930 940 c-27 -11 -44 -24 -42 -32 2 -7 34 -87 72 -178 38 -90 68 -165 67 -166 -1 -2 -76 61 -165 138 l-164 140 -59 -22 c-32 -12 -59 -27 -59 -33 0 -6 43 -116 96 -244 62 -148 102 -233 111 -233 11 0 68 25 80 35 2 1 -29 77 -67 170 -39 93 -70 172 -70 177 0 7 185 -146 306 -254 21 -19 23 -19 80 6 35 15 58 30 56 38 -4 15 -181 447 -191 464 -4 9 -19 7 -51 -6z"/>
    <path d="M3045 907 c-87 -41 -152 -145 -162 -255 -10 -114 36 -193 141 -243 69 -33 162 -39 219 -15 120 51 200 245 153 370 -33 87 -130 153 -239 162 -52 4 -70 1 -112 -19z m180 -87 c53 -26 75 -64 75 -132 0 -67 -34 -142 -84 -186 -64 -56 -162 -42 -206 31 -63 103 37 303 154 306 11 1 38 -8 61 -19z"/>
    <path d="M6339 722 l-146 -44 14 -47 c7 -25 41 -138 74 -251 34 -113 62 -206 63 -207 2 -2 67 17 147 40 l144 44 -2 32 c0 18 -5 37 -10 42 -4 4 -46 -3 -93 -16 -46 -14 -89 -25 -96 -25 -11 0 -54 118 -48 131 2 3 41 16 88 29 48 14 86 29 85 35 0 5 -6 24 -12 41 l-12 31 -79 -23 c-44 -13 -85 -24 -91 -24 -6 0 -18 27 -27 59 l-15 59 76 22 c127 38 122 34 109 72 -6 18 -13 36 -17 39 -3 3 -72 -14 -152 -39z"/>
    <path d="M3485 510 c-37 -138 -66 -252 -64 -254 5 -3 84 -26 91 -26 2 0 29 91 59 201 63 234 62 235 74 -58 l7 -182 50 -11 c27 -7 51 -11 53 -9 2 2 53 81 115 174 111 170 136 204 126 175 -10 -30 -99 -365 -100 -379 -1 -9 17 -19 46 -26 42 -11 48 -11 52 4 13 42 125 458 128 476 3 17 -8 23 -77 41 l-80 21 -41 -61 c-22 -34 -71 -109 -108 -169 -37 -59 -72 -105 -77 -101 -5 3 -9 47 -9 98 0 51 -3 140 -6 198 l-7 105 -71 17 c-39 9 -76 16 -82 16 -6 0 -42 -113 -79 -250z"/>
    <path d="M6015 633 c-43 -8 -80 -15 -82 -16 -1 -2 -15 -95 -30 -207 l-29 -205 -94 182 c-105 202 -92 190 -197 172 -51 -9 -63 -15 -63 -30 0 -24 80 -493 85 -498 10 -9 95 11 95 24 0 7 -13 91 -30 187 -16 95 -30 182 -30 193 0 11 44 -64 98 -167 54 -103 101 -190 104 -194 4 -3 29 -3 56 1 l49 6 27 197 c15 108 31 208 35 221 5 17 18 -38 42 -180 l35 -204 39 2 c22 2 45 5 51 7 8 3 -2 82 -32 262 -25 142 -45 258 -47 259 -1 1 -38 -5 -82 -12z"/>
    <path d="M4220 584 c0 -5 -13 -121 -29 -259 -16 -137 -27 -252 -25 -254 2 -3 26 -5 51 -5 l47 -1 22 190 c13 105 23 196 23 204 2 32 11 -4 52 -204 23 -116 43 -211 43 -211 1 -1 24 -5 51 -9 l51 -6 88 193 c88 192 113 237 102 188 -8 -36 -48 -392 -44 -395 2 -1 24 -5 50 -8 l47 -6 6 42 c5 40 55 473 55 481 0 4 -69 12 -153 20 -13 1 -36 -42 -101 -189 -68 -152 -86 -185 -90 -165 -4 14 -22 105 -41 204 -19 98 -35 180 -37 181 -8 8 -168 16 -168 9z"/>
    <path d="M5310 540 c-63 -4 -145 -8 -182 -9 l-68 -1 0 -43 0 -44 79 5 78 4 7 -188 c4 -104 10 -204 13 -221 5 -32 7 -33 55 -33 l50 0 -8 182 c-5 101 -8 201 -9 223 l0 40 73 3 72 3 0 44 c0 40 -2 45 -22 43 -13 -1 -75 -5 -138 -8z"/>
    <path d="M4907 463 c-4 -38 -7 -157 -7 -265 l0 -198 49 0 48 0 7 46 c3 26 6 145 6 265 l0 219 -49 0 -48 0 -6 -67z"/>
    </g>
</svg>
